<svg xmlns="http://www.w3.org/2000/svg" xmlns:xlink="http://www.w3.org/1999/xlink" viewBox="0 0 208.13 48"><defs><style>.cls-1{fill:#fff;}.cls-2{opacity:0.5;}.cls-3{fill:url(#Безымянный_градиент_59);}.cls-4{fill:url(#Безымянный_градиент_59-2);}.cls-5{fill:url(#Безымянный_градиент_59-3);}</style><linearGradient id="Безымянный_градиент_59" x1="10.15" y1="22.34" x2="40.95" y2="41.7" gradientUnits="userSpaceOnUse"><stop offset="0" stop-color="#0093e9"/><stop offset="1" stop-color="#1bffff"/></linearGradient><linearGradient id="Безымянный_градиент_59-2" x1="33.35" y1="42.91" x2="10.65" y2="27.94" xlink:href="#Безымянный_градиент_59"/><linearGradient id="Безымянный_градиент_59-3" x1="51.83" y1="47.49" x2="19.79" y2="36.24" xlink:href="#Безымянный_градиент_59"/></defs><title>Second Lock Up - Light</title><g id="Слой_2" data-name="Слой 2"><g id="Слой_1-2" data-name="Слой 1"><path class="cls-1" d="M76.51,22.74l-1.43-3.68H67.33l-1.41,3.68H65l5.78-14.9h.81l5.81,14.9Zm-8.87-4.49h7.13L71.22,9Z"/><path class="cls-1" d="M81.45,22h7.1l-.11.78H80.62V7.84h.83Z"/><path class="cls-1" d="M98.79,7.84l-.11.83H94.1V22.74h-.85V8.67H88.53V7.84Z"/><path class="cls-1" d="M103,21.92h7.55l-.13.82h-8.24V7.84h8.24v.83H103V15h6.88v.75H103Z"/><path class="cls-1" d="M115,22.74V7.84h5.27a4.54,4.54,0,0,1,3.37,1.28,4.35,4.35,0,0,1,1.3,3.3A4.45,4.45,0,0,1,121.6,17L125,22.74h-1l-3.33-5.58-4.92,0v5.56Zm.82-6.36h4.45a3.65,3.65,0,0,0,3.77-4,3.55,3.55,0,0,0-3.77-3.75h-4.45Z"/><path class="cls-1" d="M129.49,22.74V7.84h5.27a4.54,4.54,0,0,1,3.37,1.28,4.35,4.35,0,0,1,1.3,3.3A4.44,4.44,0,0,1,136.1,17l3.44,5.71h-1l-3.33-5.58-4.92,0v5.56Zm.82-6.36h4.45a3.66,3.66,0,0,0,3.78-4,3.56,3.56,0,0,0-3.78-3.75h-4.45Z"/><path class="cls-1" d="M153.21,22.74l-1.43-3.68H144l-1.41,3.68h-.89l5.79-14.9h.8l5.81,14.9Zm-8.86-4.49h7.12L147.92,9Z"/><path class="cls-1" d="M156.19,21.63l.33-.72a10.58,10.58,0,0,0,4.81,1.25c2.48,0,4.08-1.34,4.08-3.32a2.66,2.66,0,0,0-.78-1.79,4.08,4.08,0,0,0-.94-.63,9.64,9.64,0,0,0-1-.47c-.25-.11-.65-.26-1.21-.47l-1.05-.38c-2.26-.82-3.6-1.8-3.6-3.84a3.24,3.24,0,0,1,1.28-2.66,5.26,5.26,0,0,1,3.37-1,10.59,10.59,0,0,1,4.31,1.09l-.33.72a8.82,8.82,0,0,0-4-1c-2.3,0-3.8,1.14-3.8,2.86,0,1.54,1.1,2.35,3.09,3.09l1,.4c.58.2,1,.38,1.34.51a8.47,8.47,0,0,1,1.18.56,3.33,3.33,0,0,1,1.95,3,3.7,3.7,0,0,1-1.37,3A5.4,5.4,0,0,1,161.33,23,11.75,11.75,0,0,1,156.19,21.63Z"/><path class="cls-1" d="M181.21,9.74a8,8,0,0,1,1.94,5.54,7.75,7.75,0,0,1-1.92,5.57,7.15,7.15,0,0,1-10.14,0,8.07,8.07,0,0,1-1.92-5.59,8,8,0,0,1,1.92-5.56,7.12,7.12,0,0,1,10.12,0Zm-.63.56a5.55,5.55,0,0,0-4.42-1.85,5.81,5.81,0,0,0-4.44,1.92A7.07,7.07,0,0,0,170,15.28a7.28,7.28,0,0,0,1.68,5,5.7,5.7,0,0,0,4.44,1.87,5.63,5.63,0,0,0,4.42-1.87,7.28,7.28,0,0,0,1.68-5A7.18,7.18,0,0,0,180.58,10.3Z"/><path class="cls-1" d="M195.55,8.67h-7.19V15h6.88l-.13.76h-6.75v6.94h-.82V7.84h8Z"/><path class="cls-1" d="M208.13,7.84l-.11.83h-4.58V22.74h-.85V8.67h-4.71V7.84Z"/><g class="cls-2"><path class="cls-1" d="M70.37,39.38l-.7-1.79H65.93l-.7,1.79h-.35l2.77-7.06h.29l2.78,7.06Zm-4.32-2.11h3.49l-1.75-4.48Z"/><path class="cls-1" d="M73.2,39.08h3.42l-.05.3H72.88V32.32h.32Z"/><path class="cls-1" d="M82.09,32.32l0,.31h-2.2v6.75h-.32V32.63H77.25v-.31Z"/><path class="cls-1" d="M84.68,39.06h3.63l-.06.32H84.37V32.32h3.88v.31H84.68v3.12H88V36H84.68Z"/><path class="cls-1" d="M91.05,39.38V32.32h2.49a2.18,2.18,0,0,1,1.59.59,2.3,2.3,0,0,1-1,3.75l1.64,2.72h-.39l-1.6-2.67H91.37v2.66Zm.32-3h2.17a1.79,1.79,0,0,0,1.86-1.92,1.76,1.76,0,0,0-1.86-1.85H91.37Z"/><path class="cls-1" d="M98.58,39.38V32.32h.32v7.06Z"/><path class="cls-1" d="M106.9,32.32h.32v7.06h-.38l-4.34-6.59v6.59h-.32V32.32h.38l4.34,6.58Z"/><path class="cls-1" d="M114.86,32.47a4.4,4.4,0,0,1,1.29.68l-.16.27a4.71,4.71,0,0,0-1.23-.67,3.5,3.5,0,0,0-1.23-.25,3,3,0,0,0-2.34.93,3.78,3.78,0,0,0,0,4.85,3.11,3.11,0,0,0,2.34.92,3.76,3.76,0,0,0,2.4-1V36h-2.56l0-.29h2.83v2.62a3.78,3.78,0,0,1-1.25.85,3.83,3.83,0,0,1-1.47.32,3.47,3.47,0,0,1-2.59-1,3.69,3.69,0,0,1-1-2.65,3.65,3.65,0,0,1,1-2.64,3.47,3.47,0,0,1,2.59-1A3.8,3.8,0,0,1,114.86,32.47Z"/><path class="cls-1" d="M127.38,32.32l0,.31h-2.21v6.75h-.31V32.63h-2.27v-.31Z"/><path class="cls-1" d="M129.65,39.38V32.32H130v3.35h4.41V32.32h.31v7.06h-.31V36H130v3.41Z"/><path class="cls-1" d="M138.29,39.06h3.62l0,.32H138V32.32h3.89v.31h-3.57v3.12h3.31V36h-3.31Z"/><path class="cls-1" d="M156.43,32.32h.35l-2.05,7.06h-.26l-2.24-6.59L150,39.38h-.25l-2-7.06H148l1.84,6.45,2.2-6.45h.33l2.19,6.47Z"/><path class="cls-1" d="M159.33,38.49a3.84,3.84,0,0,1-.91-2.65,3.74,3.74,0,0,1,.91-2.62,3.07,3.07,0,0,1,2.39-1,3,3,0,0,1,2.38,1,4.25,4.25,0,0,1,0,5.27,3.38,3.38,0,0,1-4.8,0Zm4.54-5.06a2.72,2.72,0,0,0-2.15-.9,2.81,2.81,0,0,0-2.15.93,3.43,3.43,0,0,0-.81,2.38,3.54,3.54,0,0,0,.81,2.42,3,3,0,0,0,4.3,0,3.55,3.55,0,0,0,.82-2.42A3.48,3.48,0,0,0,163.87,33.43Z"/><path class="cls-1" d="M167.77,39.38V32.32h2.49a2.18,2.18,0,0,1,1.59.59,2.3,2.3,0,0,1-1,3.75l1.64,2.72h-.39l-1.6-2.67h-2.42v2.66Zm.32-3h2.17a1.79,1.79,0,0,0,1.86-1.92,1.76,1.76,0,0,0-1.86-1.85h-2.17Z"/><path class="cls-1" d="M175.62,39.08H179l-.06.3H175.3V32.32h.32Z"/><path class="cls-1" d="M184.05,32.32a2.82,2.82,0,0,1,2.25,1,4.26,4.26,0,0,1,0,5.13,2.84,2.84,0,0,1-2.25,1h-2.74V32.32Zm0,6.74a2.46,2.46,0,0,0,2-.88,3.41,3.41,0,0,0,.77-2.33,3.45,3.45,0,0,0-.77-2.33,2.47,2.47,0,0,0-2-.89h-2.42v6.43Z"/></g><polygon class="cls-3" points="18.37 35.29 25.01 27.93 31.26 30.54 36.76 32.83 25.53 10.76 0.02 47.98 0 47.97 25.54 0 50.04 48 18.37 35.29"/><polygon class="cls-4" points="0 47.97 25.54 10.71 36.81 32.88 31.25 30.56 25.37 19.05 0.02 47.98 0 47.97"/><polygon class="cls-5" points="18.37 35.29 48.62 45.22 50.04 48 18.37 35.29"/></g></g></svg>